HIERARCHY
ROOT mixamorig:Hips
{
	OFFSET 0.000000 201.639420 0.000000
	CHANNELS 6 Xposition Yposition Zposition Xrotation Yrotation Zrotation
	JOINT mixamorig:Spine
	{
		OFFSET 0.006200 19.524994 -2.481800
		CHANNELS 3 Xrotation Yrotation Zrotation
		JOINT mixamorig:Spine1
		{
			OFFSET -0.000900 22.835007 -2.825400
			CHANNELS 3 Xrotation Yrotation Zrotation
			JOINT mixamorig:Spine2
			{
				OFFSET -0.020600 26.552490 -3.193300
				CHANNELS 3 Xrotation Yrotation Zrotation
				JOINT mixamorig:Neck
				{
					OFFSET -0.060000 30.701813 1.352200
					CHANNELS 3 Xrotation Yrotation Zrotation
					JOINT mixamorig:Head
					{
						OFFSET -0.087200 22.547607 3.670900
						CHANNELS 3 Xrotation Yrotation Zrotation
						JOINT mixamorig:HeadTop_End
						{
							OFFSET -0.830600 40.355194 7.893500
							CHANNELS 3 Xrotation Yrotation Zrotation
							End Site
							{
								OFFSET 0.000000 30.592346 0.000000
							}
						}
						JOINT mixamorig:RightEye
						{
							OFFSET -6.302100 18.118591 16.197100
							CHANNELS 3 Xrotation Yrotation Zrotation
							End Site
							{
								OFFSET 0.000000 30.592346 0.000000
							}
						}
						JOINT mixamorig:LeftEye
						{
							OFFSET 6.741500 18.382690 16.401899
							CHANNELS 3 Xrotation Yrotation Zrotation
							End Site
							{
								OFFSET 0.000000 30.592346 0.000000
							}
						}
					}
				}
				JOINT mixamorig:LeftShoulder
				{
					OFFSET 11.924900 18.230499 1.425400
					CHANNELS 3 Xrotation Yrotation Zrotation
					JOINT mixamorig:LeftArm
					{
						OFFSET 25.435989 -0.697632 -5.229300
						CHANNELS 3 Xrotation Yrotation Zrotation
						JOINT mixamorig:LeftForeArm
						{
							OFFSET 54.684776 0.000000 0.000000
							CHANNELS 3 Xrotation Yrotation Zrotation
							JOINT mixamorig:LeftHand
							{
								OFFSET 55.098175 0.000000 0.000000
								CHANNELS 3 Xrotation Yrotation Zrotation
								JOINT mixamorig:LeftHandMiddle1
								{
									OFFSET 23.369751 0.000000 0.000000
									CHANNELS 3 Xrotation Yrotation Zrotation
									JOINT mixamorig:LeftHandMiddle2
									{
										OFFSET 6.378677 0.000000 0.000000
										CHANNELS 3 Xrotation Yrotation Zrotation
										JOINT mixamorig:LeftHandMiddle3
										{
											OFFSET 6.148331 0.000000 0.000000
											CHANNELS 3 Xrotation Yrotation Zrotation
											JOINT mixamorig:LeftHandMiddle4
											{
												OFFSET 6.582504 0.000000 0.000000
												CHANNELS 3 Xrotation Yrotation Zrotation
												End Site
												{
													OFFSET -1.168900 6.395691 1.028606
												}
											}
										}
									}
								}
								JOINT mixamorig:LeftHandThumb1
								{
									OFFSET 7.235672 -3.848206 5.434273
									CHANNELS 3 Xrotation Yrotation Zrotation
									JOINT mixamorig:LeftHandThumb2
									{
										OFFSET 6.568451 -3.792297 3.792300
										CHANNELS 3 Xrotation Yrotation Zrotation
										JOINT mixamorig:LeftHandThumb3
										{
											OFFSET 6.063080 -3.500519 3.500518
											CHANNELS 3 Xrotation Yrotation Zrotation
											JOINT mixamorig:LeftHandThumb4
											{
												OFFSET 4.793182 -2.767334 2.767349
												CHANNELS 3 Xrotation Yrotation Zrotation
												End Site
												{
													OFFSET 0.101639 6.054260 1.275483
												}
											}
										}
									}
								}
								JOINT mixamorig:LeftHandIndex1
								{
									OFFSET 23.101074 -0.309540 4.992809
									CHANNELS 3 Xrotation Yrotation Zrotation
									JOINT mixamorig:LeftHandIndex2
									{
										OFFSET 6.226883 0.000000 0.000000
										CHANNELS 3 Xrotation Yrotation Zrotation
										JOINT mixamorig:LeftHandIndex3
										{
											OFFSET 6.094330 0.000000 0.000000
											CHANNELS 3 Xrotation Yrotation Zrotation
											JOINT mixamorig:LeftHandIndex4
											{
												OFFSET 5.482605 0.000000 0.000000
												CHANNELS 3 Xrotation Yrotation Zrotation
												End Site
												{
													OFFSET -1.427902 5.233032 0.797164
												}
											}
										}
									}
								}
								JOINT mixamorig:LeftHandRing1
								{
									OFFSET 22.299240 0.021149 -3.964172
									CHANNELS 3 Xrotation Yrotation Zrotation
									JOINT mixamorig:LeftHandRing2
									{
										OFFSET 6.321869 0.000000 0.000000
										CHANNELS 3 Xrotation Yrotation Zrotation
										JOINT mixamorig:LeftHandRing3
										{
											OFFSET 5.899796 0.000000 0.000000
											CHANNELS 3 Xrotation Yrotation Zrotation
											JOINT mixamorig:LeftHandRing4
											{
												OFFSET 6.517899 0.000000 0.000000
												CHANNELS 3 Xrotation Yrotation Zrotation
												End Site
												{
													OFFSET -1.637299 6.232208 0.980890
												}
											}
										}
									}
								}
								JOINT mixamorig:LeftHandPinky1
								{
									OFFSET 20.463791 -0.302338 -8.562233
									CHANNELS 3 Xrotation Yrotation Zrotation
									JOINT mixamorig:LeftHandPinky2
									{
										OFFSET 6.908646 0.000000 0.000000
										CHANNELS 3 Xrotation Yrotation Zrotation
										JOINT mixamorig:LeftHandPinky3
										{
											OFFSET 4.622849 0.000000 0.000000
											CHANNELS 3 Xrotation Yrotation Zrotation
											JOINT mixamorig:LeftHandPinky4
											{
												OFFSET 5.216080 0.000000 0.000000
												CHANNELS 3 Xrotation Yrotation Zrotation
												End Site
												{
													OFFSET -0.606308 5.116241 0.814926
												}
											}
										}
									}
								}
							}
						}
					}
				}
				JOINT mixamorig:RightShoulder
				{
					OFFSET -12.001300 18.284088 1.348900
					CHANNELS 3 Xrotation Yrotation Zrotation
					JOINT mixamorig:RightArm
					{
						OFFSET -25.308500 -0.751312 -5.164599
						CHANNELS 3 Xrotation Yrotation Zrotation
						JOINT mixamorig:RightForeArm
						{
							OFFSET -54.684429 0.000000 0.000000
							CHANNELS 3 Xrotation Yrotation Zrotation
							JOINT mixamorig:RightHand
							{
								OFFSET -55.150291 0.000000 0.000000
								CHANNELS 3 Xrotation Yrotation Zrotation
								JOINT mixamorig:RightHandMiddle1
								{
									OFFSET -23.317566 0.000000 0.000000
									CHANNELS 3 Xrotation Yrotation Zrotation
									JOINT mixamorig:RightHandMiddle2
									{
										OFFSET -6.378403 0.000000 0.000000
										CHANNELS 3 Xrotation Yrotation Zrotation
										JOINT mixamorig:RightHandMiddle3
										{
											OFFSET -6.148193 0.000000 0.000000
											CHANNELS 3 Xrotation Yrotation Zrotation
											JOINT mixamorig:RightHandMiddle4
											{
												OFFSET -6.583389 0.000000 0.000000
												CHANNELS 3 Xrotation Yrotation Zrotation
												End Site
												{
													OFFSET 1.171692 6.395905 1.029786
												}
											}
										}
									}
								}
								JOINT mixamorig:RightHandThumb1
								{
									OFFSET -7.190521 -3.860474 5.435846
									CHANNELS 3 Xrotation Yrotation Zrotation
									JOINT mixamorig:RightHandThumb2
									{
										OFFSET -6.567429 -3.791718 3.791708
										CHANNELS 3 Xrotation Yrotation Zrotation
										JOINT mixamorig:RightHandThumb3
										{
											OFFSET -6.062469 -3.500153 3.500166
											CHANNELS 3 Xrotation Yrotation Zrotation
											JOINT mixamorig:RightHandThumb4
											{
												OFFSET -4.792618 -2.767029 2.767022
												CHANNELS 3 Xrotation Yrotation Zrotation
												End Site
												{
													OFFSET -0.100327 6.053253 1.276754
												}
											}
										}
									}
								}
								JOINT mixamorig:RightHandIndex1
								{
									OFFSET -23.048981 -0.310791 4.992554
									CHANNELS 3 Xrotation Yrotation Zrotation
									JOINT mixamorig:RightHandIndex2
									{
										OFFSET -6.227539 0.000000 0.000000
										CHANNELS 3 Xrotation Yrotation Zrotation
										JOINT mixamorig:RightHandIndex3
										{
											OFFSET -6.095047 0.000000 0.000000
											CHANNELS 3 Xrotation Yrotation Zrotation
											JOINT mixamorig:RightHandIndex4
											{
												OFFSET -5.484772 0.000000 0.000000
												CHANNELS 3 Xrotation Yrotation Zrotation
												End Site
												{
													OFFSET 1.420593 5.237305 0.797056
												}
											}
										}
									}
								}
								JOINT mixamorig:RightHandRing1
								{
									OFFSET -22.246323 0.020569 -3.963762
									CHANNELS 3 Xrotation Yrotation Zrotation
									JOINT mixamorig:RightHandRing2
									{
										OFFSET -6.322128 0.000000 0.000000
										CHANNELS 3 Xrotation Yrotation Zrotation
										JOINT mixamorig:RightHandRing3
										{
											OFFSET -5.900024 0.000000 0.000000
											CHANNELS 3 Xrotation Yrotation Zrotation
											JOINT mixamorig:RightHandRing4
											{
												OFFSET -6.518356 0.000000 0.000000
												CHANNELS 3 Xrotation Yrotation Zrotation
												End Site
												{
													OFFSET 1.636398 6.232697 0.982186
												}
											}
										}
									}
								}
								JOINT mixamorig:RightHandPinky1
								{
									OFFSET -20.411011 -0.303314 -8.561701
									CHANNELS 3 Xrotation Yrotation Zrotation
									JOINT mixamorig:RightHandPinky2
									{
										OFFSET -6.907349 0.000000 0.000000
										CHANNELS 3 Xrotation Yrotation Zrotation
										JOINT mixamorig:RightHandPinky3
										{
											OFFSET -4.623840 0.000000 0.000000
											CHANNELS 3 Xrotation Yrotation Zrotation
											JOINT mixamorig:RightHandPinky4
											{
												OFFSET -5.218353 0.000000 0.000000
												CHANNELS 3 Xrotation Yrotation Zrotation
												End Site
												{
													OFFSET 0.602097 5.118835 0.816273
												}
											}
										}
									}
								}
							}
						}
					}
				}
			}
		}
	}
	JOINT mixamorig:LeftUpLeg
	{
		OFFSET 18.168400 -13.561905 -0.039000
		CHANNELS 3 Xrotation Yrotation Zrotation
		JOINT mixamorig:LeftLeg
		{
			OFFSET 0.577358 -80.825211 -3.695000
			CHANNELS 3 Xrotation Yrotation Zrotation
			JOINT mixamorig:LeftFoot
			{
				OFFSET -0.577356 -83.370262 -6.520700
				CHANNELS 3 Xrotation Yrotation Zrotation
				JOINT mixamorig:LeftToeBase
				{
					OFFSET 0.750401 -20.798306 25.135401
					CHANNELS 3 Xrotation Yrotation Zrotation
					JOINT mixamorig:LeftToe_End
					{
						OFFSET -0.000500 0.001200 19.917799
						CHANNELS 3 Xrotation Yrotation Zrotation
						End Site
						{
							OFFSET 0.000000 19.917805 0.000000
						}
					}
				}
			}
		}
	}
	JOINT mixamorig:RightUpLeg
	{
		OFFSET -18.162500 -13.585098 -0.041000
		CHANNELS 3 Xrotation Yrotation Zrotation
		JOINT mixamorig:RightLeg
		{
			OFFSET -0.595024 -80.945297 -3.631900
			CHANNELS 3 Xrotation Yrotation Zrotation
			JOINT mixamorig:RightFoot
			{
				OFFSET 0.595024 -83.218193 -6.561200
				CHANNELS 3 Xrotation Yrotation Zrotation
				JOINT mixamorig:RightToeBase
				{
					OFFSET -0.753601 -20.807106 25.115000
					CHANNELS 3 Xrotation Yrotation Zrotation
					JOINT mixamorig:RightToe_End
					{
						OFFSET 0.000299 0.001700 19.918200
						CHANNELS 3 Xrotation Yrotation Zrotation
						End Site
						{
							OFFSET 0.000000 19.918203 0.000000
						}
					}
				}
			}
		}
	}
}
MOTION
Frames: 4
Frame Time: 0.033333
-0.060300 187.221848 2.097332 17.429782 -3.297228 0.070245 14.913747 -1.555266 0.405813 5.346277 -0.845702 -1.559632 5.141035 -0.424837 -0.173901 -8.304035 0.952454 1.844256 -26.439804 5.054434 0.649109 0.000000 0.000000 0.000000 0.000000 0.000000 0.000000 0.000000 0.000000 0.000000 -18.185051 -16.684733 -4.143146 -14.299580 5.321651 -58.617264 0.000004 -50.169655 -0.000002 13.748589 -26.697304 34.896973 0.494842 4.564849 -22.398022 0.931127 3.170789 -32.723675 0.559391 2.500214 -25.219761 0.000001 0.000003 0.000000 11.187891 5.997099 -10.405211 5.363088 8.351975 0.904211 -5.744287 10.814864 15.940827 0.000000 -0.000001 0.000001 0.153507 -1.751676 -23.178197 0.809090 2.972602 -30.446521 0.886310 3.100029 -31.903875 -0.000000 0.000001 -0.000000 0.700940 5.019826 -28.509027 0.453635 2.262272 -22.674519 1.672871 4.099661 -44.381323 -0.000002 0.000003 0.000001 0.465101 8.292847 -13.856673 0.624487 2.633836 -26.672976 2.026717 4.431548 -49.135940 -0.000002 -0.000001 -0.000000 -23.769979 22.742587 4.874675 -0.233469 -15.047897 62.639651 -0.000007 53.262730 0.000001 -1.218879 18.916641 -19.344617 0.187465 -3.413292 14.033681 0.448842 -1.996605 25.337246 0.480600 -2.062278 26.233700 0.000000 0.000001 -0.000000 -1.237022 9.918018 5.832121 6.896121 -18.922489 -2.478616 -4.452440 -14.082256 -16.510184 0.000003 0.000002 -0.000001 0.710431 3.726545 13.785571 0.253607 -1.517377 18.976142 0.289150 -1.617026 20.275698 0.000001 0.000000 -0.000000 2.577226 -11.024847 17.203308 1.378468 -3.309277 45.218677 0.423391 -1.941938 24.596233 0.000002 0.000002 0.000001 2.630086 -23.282675 23.282110 0.574911 -2.243400 28.743844 1.002136 -2.888111 38.265380 0.000003 0.000002 0.000003 -42.956750 1.312271 18.353514 32.883423 -1.974346 3.176795 -7.316338 -5.720341 -17.709139 -10.500823 0.000001 -0.000005 -0.000000 -0.000000 -0.000000 -43.289804 -2.206934 -10.959466 35.045246 -4.559467 -8.540931 -6.833811 -0.644985 18.938595 -3.267371 0.000002 0.000000 -0.000000 -0.000001 -0.000000 
0.016507 185.950790 2.655582 17.116053 -3.385004 0.039377 13.792129 -1.488689 0.464470 5.086911 -0.807569 -1.341489 4.900452 -0.430856 -0.091208 -8.457851 0.921393 1.755693 -25.542220 5.074517 0.296782 -0.000001 0.000000 -0.000000 -0.000001 0.000000 -0.000000 -0.000001 0.000000 -0.000000 -16.298655 -15.270493 -3.955715 -15.255429 0.964250 -58.420049 0.000038 -53.585662 0.000052 11.099419 -27.200071 33.877711 0.430520 4.459479 -25.758136 1.132217 3.463323 -36.197841 0.479659 2.323530 -23.325176 -0.000001 0.000001 -0.000000 11.213570 7.570559 -7.904273 5.177383 7.778756 0.546386 -5.639007 10.363145 14.951120 0.000001 -0.000003 -0.000000 0.842144 -3.207825 -22.998044 0.981434 3.247635 -33.622204 0.785221 2.931630 -29.982546 -0.000003 0.000001 0.000001 1.258066 5.907808 -34.974339 0.607506 2.599833 -26.301204 1.507944 3.924511 -42.024566 -0.000001 0.000000 0.000001 -0.018332 11.070508 -25.082908 0.759898 2.887377 -29.483925 1.724249 4.151408 -45.095457 0.000002 0.000001 0.000003 -20.256432 22.494053 3.883272 -2.401853 -10.966604 61.488054 -0.000001 57.684363 0.000008 -1.492534 19.104447 -22.991148 0.307892 -3.817031 18.492792 1.205806 -3.128777 42.144818 0.547305 -2.192383 28.030815 -0.000001 -0.000003 -0.000001 -0.789298 7.141286 5.570361 6.998251 -19.345273 -2.188258 -4.566449 -13.047602 -16.299835 0.000002 0.000003 0.000002 0.582862 4.191943 13.927661 0.480269 -2.061619 26.224732 0.366731 -1.813087 22.866464 0.000001 0.000004 -0.000001 3.728933 -10.004760 29.315930 1.811175 -3.687922 52.300466 0.504134 -2.109346 26.880496 -0.000002 -0.000001 -0.000001 4.144169 -25.174979 35.024599 0.962410 -2.837097 37.469735 0.982678 -2.863300 37.877459 0.000001 0.000001 0.000001 -43.881875 0.935480 18.569913 35.840233 -2.183178 3.175568 -8.955495 -5.471052 -17.722222 -10.500822 -0.000001 -0.000006 0.000000 -0.000000 -0.000000 -44.099762 -1.924433 -11.097155 37.672455 -4.476481 -8.512778 -8.281510 -0.881690 19.136467 -3.337198 0.000008 -0.000004 -0.000000 0.000000 0.000000 
0.067800 184.707916 3.497009 16.588352 -3.346769 -0.001776 12.518804 -1.396296 0.577739 4.790002 -0.771993 -1.105536 4.625117 -0.440246 -0.006954 -8.618774 0.894464 1.591141 -24.312883 5.025664 -0.102019 0.000001 0.000000 0.000000 0.000001 0.000000 0.000000 0.000001 0.000000 0.000000 -14.410309 -13.903462 -3.862218 -17.029798 -3.730669 -57.589464 0.000024 -57.189775 0.000021 8.283937 -28.041448 32.943700 0.449041 4.675390 -32.592932 1.585847 4.009062 -43.150628 0.397302 2.122501 -21.202108 -0.000000 -0.000001 0.000001 11.957468 11.662142 -3.503558 4.969374 7.137450 0.142288 -5.519868 9.847162 13.844624 0.000006 -0.000003 -0.000002 1.631846 -4.837187 -22.744153 1.387836 3.787272 -40.238492 0.678697 2.738979 -27.829671 -0.000002 -0.000002 -0.000001 2.474629 7.128371 -47.916475 0.969987 3.230398 -33.419607 1.331889 3.720314 -39.384158 -0.000001 0.000003 0.000002 0.280521 14.688197 -45.664463 1.101647 3.421212 -35.688415 1.409797 3.813069 -40.570132 0.000001 -0.000001 0.000001 -16.270045 22.128199 2.680854 -5.125152 -6.282945 60.348806 -0.000007 62.926806 -0.000002 -0.996262 19.167543 -27.566177 0.613334 -4.508432 27.034346 3.326826 -4.463522 73.384720 0.701159 -2.459448 31.820359 0.000005 0.000000 -0.000002 0.926857 1.634136 4.456177 7.164328 -20.169958 -1.885718 -4.715591 -11.739332 -16.031841 0.000000 -0.000003 0.000001 0.415904 4.745825 13.617632 1.065502 -2.966603 39.506193 0.569821 -2.234064 28.613216 -0.000001 -0.000000 -0.000001 3.924295 -7.625418 51.223895 2.876072 -4.303827 67.492685 0.688537 -2.438984 31.525004 -0.000001 -0.000000 0.000001 9.091955 -26.198639 57.992015 1.962847 -3.800052 54.622693 1.051192 -2.949159 39.228765 -0.000002 -0.000001 0.000001 -44.450567 0.750948 18.806209 38.569815 -2.637215 3.158807 -10.580385 -5.246180 -17.660765 -10.500822 -0.000002 -0.000004 0.000000 -0.000000 -0.000000 -44.477830 -1.695323 -11.295902 40.164712 -4.462982 -8.492369 -9.801473 -1.133062 19.369646 -3.261657 0.000004 0.000003 -0.000000 -0.000001 -0.000000 
0.014669 183.551392 4.608807 15.887187 -3.303833 -0.171104 11.112328 -1.276518 0.725009 4.440472 -0.726149 -0.853367 4.298942 -0.442272 0.084726 -8.759747 0.865725 1.387161 -22.955125 4.954980 -0.606965 -0.000000 0.000000 -0.000000 -0.000000 0.000000 -0.000000 -0.000000 0.000000 -0.000000 -12.482108 -12.679712 -3.665039 -19.748695 -8.701049 -56.251003 -0.000008 -61.076822 -0.000008 5.089323 -29.358007 32.721971 0.292726 4.577228 -35.979886 1.841557 4.264792 -46.693888 0.317650 1.904585 -18.935207 -0.000000 0.000002 0.000001 11.526637 13.113339 -0.833024 4.747323 6.453892 -0.292806 -5.391546 9.284818 12.666338 -0.000001 0.000000 0.000000 2.498929 -6.572329 -22.411386 1.604965 4.029297 -43.423375 0.573054 2.528974 -25.531080 -0.000001 -0.000001 0.000000 3.349316 7.703733 -54.571603 1.190156 3.540985 -37.146182 1.154532 3.493536 -36.565407 -0.000003 0.000001 -0.000001 0.325917 17.519852 -57.658142 1.271004 3.644987 -38.435687 1.104761 3.425580 -35.740929 -0.000001 0.000000 -0.000001 -11.982700 21.682770 1.329411 -8.990676 -1.319396 58.935817 -0.000007 69.225238 0.000004 0.329597 18.362699 -32.370346 0.840062 -4.885225 31.662749 4.744088 -4.656364 91.070519 0.779902 -2.581906 33.610896 0.000002 -0.000001 0.000001 1.374840 -1.182016 4.588091 7.291866 -20.601534 -1.526636 -4.858185 -10.532294 -15.782475 -0.000002 -0.000000 0.000005 0.232288 5.283244 13.892311 1.491846 -3.417856 47.151053 0.672121 -2.412069 31.137234 -0.000001 -0.000001 -0.000003 2.953540 -6.607181 63.498315 3.414663 -4.488708 74.510165 0.790086 -2.597135 33.836163 0.000000 -0.000000 0.000003 11.364450 -25.186633 70.696194 2.587966 -4.173167 63.596199 1.008936 -2.896701 38.400013 -0.000003 0.000001 -0.000002 -44.644968 0.667116 19.244374 41.014436 -3.246529 3.131562 -12.171503 -5.045887 -17.580268 -10.500822 -0.000001 0.000007 -0.000000 -0.000000 -0.000000 -44.422259 -1.615869 -11.396084 42.402190 -4.415963 -8.432054 -11.330417 -1.400175 19.537398 -3.071751 -0.000005 0.000003 -0.000000 0.000001 0.000000 
